<?xml version="1.0" encoding="utf-8"?>
<!-- Generator: Adobe Illustrator 22.0.1, SVG Export Plug-In . SVG Version: 6.00 Build 0)  -->
<svg version="1.1" id="Layer_1" xmlns="http://www.w3.org/2000/svg" xmlns:xlink="http://www.w3.org/1999/xlink" x="0px" y="0px"
	 viewBox="0 0 263.7 263.7" style="enable-background:new 0 0 263.7 263.7;" xml:space="preserve">
<g>
	<g>
		<g>
			<path d="M246.1,131.8c0,5.6-0.4,11.1-1.1,16.7c0.1-0.8,0.2-1.6,0.3-2.3c-1.5,10.7-4.3,21.2-8.5,31.1c0.3-0.7,0.6-1.4,0.9-2.1
				c-2.4,5.7-5.2,11.2-8.5,16.5c-1.6,2.6-3.3,5.2-5.1,7.7c-0.4,0.6-0.9,1.2-1.4,1.8c-0.2,0.3-0.4,0.7-0.7,0.9c0,0,1.5-1.9,0.7-0.9
				c-1,1.3-2.1,2.6-3.1,3.9c-3.9,4.6-8.1,8.9-12.6,12.8c-1.1,1-2.3,2-3.5,3c-0.6,0.5-1.2,1-1.8,1.4c-0.2,0.1-0.4,0.3-0.6,0.5
				c2.4-1.9,0.8-0.6,0.3-0.2c-2.5,1.8-5,3.6-7.6,5.3c-5.9,3.8-12,7-18.5,9.7c0.7-0.3,1.4-0.6,2.1-0.9c-10,4.2-20.4,7-31.1,8.5
				c0.8-0.1,1.6-0.2,2.3-0.3c-11,1.5-22.3,1.5-33.3,0c0.8,0.1,1.6,0.2,2.3,0.3c-10.7-1.5-21.2-4.3-31.1-8.5c0.7,0.3,1.4,0.6,2.1,0.9
				c-5.7-2.4-11.2-5.2-16.5-8.5c-2.6-1.6-5.2-3.3-7.7-5.1c-0.6-0.4-1.2-0.9-1.8-1.4c-0.3-0.2-0.7-0.4-0.9-0.7c0,0,1.9,1.5,0.9,0.7
				c-1.3-1-2.6-2.1-3.9-3.1c-4.6-3.9-8.9-8.1-12.8-12.6c-1-1.1-2-2.3-3-3.5c-0.5-0.6-1-1.2-1.4-1.8c-0.1-0.2-0.3-0.4-0.5-0.6
				c1.9,2.4,0.6,0.8,0.2,0.3c-1.8-2.5-3.6-5-5.3-7.6c-3.8-5.9-7-12-9.7-18.5c0.3,0.7,0.6,1.4,0.9,2.1c-4.2-10-7-20.4-8.5-31.1
				c0.1,0.8,0.2,1.6,0.3,2.3c-1.5-11-1.5-22.3,0-33.3c-0.1,0.8-0.2,1.6-0.3,2.3c1.5-10.7,4.3-21.2,8.5-31.1
				c-0.3,0.7-0.6,1.4-0.9,2.1c2.4-5.7,5.2-11.2,8.5-16.5c1.6-2.6,3.3-5.2,5.1-7.7c0.4-0.6,0.9-1.2,1.4-1.8c0.2-0.3,0.4-0.7,0.7-0.9
				c0,0-1.5,1.9-0.7,0.9c1-1.3,2.1-2.6,3.1-3.9c3.9-4.6,8.1-8.9,12.6-12.8c1.1-1,2.3-2,3.5-3c0.6-0.5,1.2-1,1.8-1.4
				c0.2-0.1,0.4-0.3,0.6-0.5c-2.4,1.9-0.8,0.6-0.3,0.2c2.5-1.8,5-3.6,7.6-5.3c5.9-3.8,12-7,18.5-9.7c-0.7,0.3-1.4,0.6-2.1,0.9
				c10-4.2,20.4-7,31.1-8.5c-0.8,0.1-1.6,0.2-2.3,0.3c11-1.5,22.3-1.5,33.3,0c-0.8-0.1-1.6-0.2-2.3-0.3c10.7,1.5,21.2,4.3,31.1,8.5
				c-0.7-0.3-1.4-0.6-2.1-0.9c5.7,2.4,11.2,5.2,16.5,8.5c2.6,1.6,5.2,3.3,7.7,5.1c0.6,0.4,1.2,0.9,1.8,1.4c0.3,0.2,0.7,0.4,0.9,0.7
				c0,0-1.9-1.5-0.9-0.7c1.3,1,2.6,2.1,3.9,3.1c4.6,3.9,8.9,8.1,12.8,12.6c1,1.1,2,2.3,3,3.5c0.5,0.6,1,1.2,1.4,1.8
				c0.1,0.2,0.3,0.4,0.5,0.6c-1.9-2.4-0.6-0.8-0.2-0.3c1.8,2.5,3.6,5,5.3,7.6c3.8,5.9,7,12,9.7,18.5c-0.3-0.7-0.6-1.4-0.9-2.1
				c4.2,10,7,20.4,8.5,31.1c-0.1-0.8-0.2-1.6-0.3-2.3C245.7,120.7,246.1,126.3,246.1,131.8c0,4.6,4,9,8.8,8.8
				c4.7-0.2,8.8-3.9,8.8-8.8c-0.1-26.9-8.3-53.8-24-75.8C223.9,34,202,17.2,176.6,7.8C150.9-1.6,122-2.5,95.7,5
				c-25.3,7.2-48.5,22.2-65.2,42.5C21.7,58.3,14.8,70,9.5,82.8c-5.2,12.6-8.1,26-9.1,39.6c-2.1,26.9,4.6,54.4,18.6,77.5
				c13.6,22.4,33.9,40.9,57.8,51.7c13.1,5.9,26.6,9.6,40.8,11.3c13.7,1.6,27.7,0.8,41.2-1.9c25.9-5.2,50.1-18.8,68.3-37.9
				c18.3-19.2,30.9-43.9,34.9-70.2c1.1-7,1.7-13.9,1.7-21c0-4.6-4-9-8.8-8.8C250.1,123.2,246.1,126.9,246.1,131.8z"/>
		</g>
	</g>
	<g>
		<g>
			<path d="M100.4,175.7c2.5-2.5,5-5,7.5-7.5c6-6,11.9-11.9,17.9-17.9c7.3-7.3,14.5-14.5,21.8-21.8c6.3-6.3,12.5-12.5,18.8-18.8
				c3-3,6.2-6,9.1-9.1c0,0,0.1-0.1,0.1-0.1c3.3-3.3,3.5-9.2,0-12.4c-3.5-3.2-9-3.5-12.4,0c-2.5,2.5-5,5-7.5,7.5
				c-6,6-11.9,11.9-17.9,17.9c-7.3,7.3-14.5,14.5-21.8,21.8c-6.3,6.3-12.5,12.5-18.8,18.8c-3,3-6.2,6-9.1,9.1c0,0-0.1,0.1-0.1,0.1
				c-3.3,3.3-3.5,9.2,0,12.4C91.5,178.9,97,179.1,100.4,175.7L100.4,175.7z"/>
		</g>
	</g>
	<g>
		<g>
			<path d="M175.7,163.2c-2.5-2.5-5-5-7.5-7.5c-6-6-11.9-11.9-17.9-17.9c-7.3-7.3-14.5-14.5-21.8-21.8c-6.3-6.3-12.5-12.5-18.8-18.8
				c-3-3-6-6.2-9.1-9.1c0,0-0.1-0.1-0.1-0.1c-3.3-3.3-9.2-3.5-12.4,0c-3.2,3.5-3.5,9,0,12.4c2.5,2.5,5,5,7.5,7.5
				c6,6,11.9,11.9,17.9,17.9c7.3,7.3,14.5,14.5,21.8,21.8c6.3,6.3,12.5,12.5,18.8,18.8c3,3,6,6.2,9.1,9.1c0,0,0.1,0.1,0.1,0.1
				c3.3,3.3,9.2,3.5,12.4,0C178.9,172.2,179.2,166.7,175.7,163.2L175.7,163.2z"/>
		</g>
	</g>
</g>
</svg>
