<?xml version="1.0" encoding="utf-8"?>
<!-- Generator: Adobe Illustrator 22.0.1, SVG Export Plug-In . SVG Version: 6.00 Build 0)  -->
<svg version="1.1" id="Layer_1" xmlns="http://www.w3.org/2000/svg" xmlns:xlink="http://www.w3.org/1999/xlink" x="0px" y="0px"
	 viewBox="0 0 14.8 14.8" style="enable-background:new 0 0 14.8 14.8;" xml:space="preserve">
<style type="text/css">
	.st0{fill:none;stroke:#292D32;stroke-width:1.5;stroke-miterlimit:10;}
	.st1{fill:none;stroke:#292D32;stroke-width:1.5;stroke-linecap:round;stroke-linejoin:round;}
</style>
<path class="st0" d="M14.1,11.6c0,0.2-0.1,0.5-0.2,0.7c-0.1,0.2-0.3,0.5-0.5,0.7c-0.3,0.4-0.7,0.6-1.1,0.8c-0.4,0.2-0.8,0.3-1.3,0.3
	c-0.7,0-1.4-0.2-2.2-0.5c-0.8-0.3-1.5-0.8-2.3-1.3c-0.8-0.6-1.5-1.2-2.2-1.9C3.7,9.7,3.1,9,2.5,8.2C2,7.5,1.6,6.7,1.2,6
	C0.9,5.2,0.8,4.5,0.8,3.8c0-0.5,0.1-0.9,0.2-1.3c0.2-0.4,0.4-0.8,0.8-1.1C2.2,1,2.7,0.8,3.1,0.8c0.2,0,0.4,0,0.5,0.1
	C3.9,1,4,1.1,4.1,1.2l1.5,2.2c0.1,0.2,0.2,0.3,0.3,0.5C6,4,6,4.2,6,4.3c0,0.2,0,0.3-0.1,0.5C5.8,4.9,5.7,5.1,5.5,5.2L5,5.8
	C4.9,5.8,4.9,5.9,4.9,6c0,0.1,0,0.1,0,0.2c0,0.1,0,0.1,0.1,0.1c0.1,0.2,0.3,0.5,0.6,0.9c0.3,0.3,0.6,0.7,1,1.1
	c0.4,0.4,0.7,0.7,1.1,1C8,9.5,8.3,9.7,8.5,9.8c0,0,0.1,0,0.1,0.1c0.1,0,0.1,0,0.2,0c0.1,0,0.2,0,0.3-0.1l0.5-0.5
	C9.7,9.1,9.9,9,10,8.9c0.2-0.1,0.3-0.1,0.5-0.1c0.1,0,0.3,0,0.4,0.1c0.1,0.1,0.3,0.1,0.5,0.3l2.2,1.6c0.2,0.1,0.3,0.3,0.4,0.4
	C14,11.3,14.1,11.4,14.1,11.6z"/>
<path class="st1" d="M11.7,5.4c0-0.4-0.3-1-0.8-1.5c-0.4-0.5-1-0.8-1.6-0.8"/>
<path class="st1" d="M14.1,5.4c0-2.6-2.1-4.7-4.7-4.7"/>
</svg>
