<?xml version="1.0" encoding="utf-8"?>
<!-- Generator: Adobe Illustrator 16.0.0, SVG Export Plug-In . SVG Version: 6.00 Build 0)  -->
<!DOCTYPE svg PUBLIC "-//W3C//DTD SVG 1.1//EN" "http://www.w3.org/Graphics/SVG/1.1/DTD/svg11.dtd">
<svg version="1.1" id="Layer_1" xmlns="http://www.w3.org/2000/svg" xmlns:xlink="http://www.w3.org/1999/xlink" x="0px" y="0px"
	 width="234px" height="234.002px" viewBox="0 0 234 234.002" enable-background="new 0 0 234 234.002" xml:space="preserve">
<g>
	<defs>
		<rect id="SVGID_1_" x="0" y="0" width="234" height="234.002"/>
	</defs>
	<clipPath id="SVGID_2_">
		<use xlink:href="#SVGID_1_"  overflow="visible"/>
	</clipPath>
	<path clip-path="url(#SVGID_2_)" fill="#FFFFFF" d="M117,0C52.454,0,0,52.454,0,117c0,63.412,50.644,115.106,113.625,116.906
		C114.74,234.02,115.86,234,117,234c1.141,0,2.26,0.029,3.375-0.094C183.357,232.106,234,180.412,234,117
		C234,52.453,181.546,0,117,0 M111,12.938V60H76.969c2.085-6.879,4.489-13.327,7.219-18.937C91.847,25.318,101.37,15.771,111,12.938
		 M123,12.938c9.63,2.833,19.153,12.38,26.813,28.125c2.729,5.61,5.133,12.058,7.218,18.937H123V12.938z M85.5,16.875
		c-4.539,5.37-8.592,11.74-12.094,18.938c-3.517,7.23-6.536,15.408-9,24.187H28.782C41.924,39.692,61.934,24.267,85.5,16.875
		 M148.5,16.875c23.566,7.392,43.576,22.817,56.719,43.125h-35.625c-2.464-8.779-5.482-16.957-9-24.187
		C157.093,28.615,153.04,22.245,148.5,16.875 M22.125,72h39.281c-2.521,12.108-3.873,25.263-4.218,39h-45
		C12.978,97.091,16.453,83.933,22.125,72 M73.781,72H111v39H69.188C69.562,97.092,71.115,83.948,73.781,72 M123,72h37.219
		c2.666,11.948,4.219,25.092,4.594,39H123V72z M172.594,72h39.281c5.672,11.933,9.147,25.091,9.938,39h-45
		C176.467,97.263,175.115,84.108,172.594,72 M12.188,123h45c0.343,13.749,1.694,26.897,4.218,39H22.032
		C16.379,150.07,12.965,136.899,12.188,123 M69.188,123H111v39H73.781C71.115,150.073,69.562,136.902,69.188,123 M123,123h41.813
		c-0.375,13.901-1.928,27.072-4.594,39H123V123z M176.813,123h45c-0.777,13.898-4.191,27.069-9.844,39h-39.375
		C175.119,149.898,176.47,136.75,176.813,123 M28.782,174h35.624c2.464,8.765,5.483,16.862,9,24.094
		c3.523,7.241,7.614,13.72,12.188,19.125C61.964,209.83,41.94,194.365,28.782,174 M76.969,174H111v47.063
		c-9.624-2.862-19.157-12.484-26.812-28.219C81.458,187.233,79.054,180.868,76.969,174 M123,174h34.03
		c-2.085,6.867-4.488,13.232-7.218,18.844c-7.655,15.734-17.188,25.356-26.813,28.219V174z M169.594,174h35.625
		c-13.158,20.364-33.183,35.829-56.813,43.219c4.573-5.405,8.664-11.884,12.188-19.125C164.112,190.863,167.13,182.765,169.594,174"
		/>
</g>
</svg>
