<?xml version="1.0" standalone="no"?>
<!DOCTYPE svg PUBLIC "-//W3C//DTD SVG 20010904//EN"
 "http://www.w3.org/TR/2001/REC-SVG-20010904/DTD/svg10.dtd">
<svg version="1.0" xmlns="http://www.w3.org/2000/svg"
 width="1000.000000pt" height="1000.000000pt" viewBox="0 0 1000.000000 1000.000000"
 preserveAspectRatio="xMidYMid meet">
<metadata>
Created by potrace 1.14, written by Peter Selinger 2001-2017
</metadata>
<g transform="translate(0.000000,1000.000000) scale(0.100000,-0.100000)"
fill="#000000" stroke="none">
<path d="M4984 8588 c-4 -13 -29 -69 -55 -126 -27 -57 -82 -176 -123 -265 -41
-89 -93 -202 -116 -252 -23 -49 -62 -135 -87 -190 -25 -55 -60 -131 -78 -170
-18 -38 -70 -151 -115 -250 -46 -99 -102 -222 -126 -273 -24 -52 -44 -95 -44
-97 0 -1 -27 -60 -60 -129 -33 -70 -60 -128 -60 -130 0 -2 -20 -46 -44 -97
-24 -52 -116 -251 -204 -444 -88 -192 -183 -398 -211 -457 -28 -59 -51 -110
-51 -112 0 -4 -65 -146 -120 -261 -15 -33 -64 -139 -108 -235 -76 -166 -104
-227 -174 -380 -17 -36 -65 -141 -108 -235 -43 -93 -133 -289 -200 -435 -141
-305 -151 -328 -253 -550 -41 -91 -94 -205 -117 -255 -23 -49 -51 -110 -62
-135 -37 -81 -79 -174 -113 -245 -18 -38 -67 -145 -108 -236 -42 -91 -91 -199
-110 -240 -36 -76 -80 -172 -124 -269 -14 -30 -41 -89 -60 -130 -20 -41 -55
-118 -78 -170 -24 -52 -60 -131 -80 -175 -21 -44 -52 -113 -71 -153 l-33 -72
527 0 527 0 92 203 c51 111 192 420 313 687 121 267 235 517 253 555 18 39 48
105 67 147 35 77 35 77 75 78 44 1 2924 2 2940 1 6 -1 16 -16 24 -34 18 -39
70 -154 122 -265 21 -46 39 -85 39 -87 0 -2 17 -41 39 -87 21 -45 62 -135 91
-198 29 -63 70 -153 91 -198 22 -46 39 -85 39 -87 0 -2 19 -43 41 -92 23 -48
59 -126 80 -171 22 -46 39 -86 39 -87 0 -2 17 -41 39 -87 40 -85 86 -188 112
-246 l14 -32 528 0 c291 0 526 3 524 8 -3 4 -16 32 -30 62 -13 30 -39 87 -57
125 -18 39 -52 113 -75 165 -24 52 -61 133 -83 180 -22 47 -51 110 -65 140
-13 30 -39 87 -57 125 -17 39 -68 149 -112 245 -44 96 -100 217 -124 268 -24
51 -44 94 -44 96 0 3 -22 51 -49 108 -27 56 -60 128 -74 158 -13 30 -39 87
-57 125 -18 39 -65 142 -105 230 -40 88 -89 194 -108 235 -77 167 -103 223
-182 395 -45 99 -96 209 -112 245 -17 36 -40 85 -51 110 -11 25 -39 86 -62
135 -23 50 -51 110 -62 135 -11 25 -36 79 -55 120 -19 41 -57 125 -85 185 -57
123 -93 203 -139 303 -17 37 -43 92 -56 122 -36 79 -66 143 -113 245 -23 50
-75 162 -115 250 -40 88 -93 204 -119 258 -25 55 -46 100 -46 102 0 1 -23 52
-51 111 -76 163 -92 198 -152 329 -30 66 -70 152 -87 190 -18 39 -42 93 -55
120 -12 28 -38 84 -57 125 -20 41 -47 100 -61 130 -13 30 -52 114 -84 185 -33
72 -72 155 -85 185 -14 30 -40 85 -57 123 -17 37 -45 97 -62 135 -17 37 -43
92 -56 122 -14 30 -39 84 -56 120 -35 75 -137 299 -174 383 -29 62 -38 69 -49
35z m52 -2225 c41 -90 39 -85 134 -303 40 -91 80 -183 90 -205 39 -87 131
-295 296 -670 7 -16 31 -70 53 -118 23 -49 41 -91 41 -93 0 -2 11 -27 24 -56
34 -77 125 -283 191 -433 31 -71 65 -148 75 -170 9 -22 34 -78 55 -125 21 -47
48 -109 61 -138 13 -29 24 -54 24 -55 0 -2 -2138 0 -2152 2 -7 1 27 85 80 201
11 25 39 88 62 140 41 94 53 121 83 190 8 19 27 62 42 95 15 33 52 116 82 185
30 69 64 145 75 170 11 25 29 65 40 90 28 64 43 98 68 155 12 28 114 259 227
515 112 256 217 492 232 525 15 33 38 86 51 118 13 31 25 57 27 57 3 0 20 -35
39 -77z"/>
</g>
</svg>
